<?xml version="1.0" encoding="UTF-8" standalone="no"?>
<!-- Created with Inkscape (http://www.inkscape.org/) -->

<svg
   xmlns:dc="http://purl.org/dc/elements/1.1/"
   xmlns:cc="http://creativecommons.org/ns#"
   xmlns:rdf="http://www.w3.org/1999/02/22-rdf-syntax-ns#"
   xmlns:svg="http://www.w3.org/2000/svg"
   xmlns="http://www.w3.org/2000/svg"
   xmlns:sodipodi="http://sodipodi.sourceforge.net/DTD/sodipodi-0.dtd"
   xmlns:inkscape="http://www.inkscape.org/namespaces/inkscape"
   width="600"
   height="600"
   viewBox="0 0 158.75 158.75"
   version="1.1"
   id="svg8"
   inkscape:version="0.92.3 (2405546, 2018-03-11)"
   sodipodi:docname="wykres.svg">
  <defs
     id="defs2" />
  <sodipodi:namedview
     id="base"
     pagecolor="#ffffff"
     bordercolor="#666666"
     borderopacity="1.0"
     inkscape:pageopacity="0.0"
     inkscape:pageshadow="2"
     inkscape:zoom="0.7"
     inkscape:cx="353.0872"
     inkscape:cy="250.0102"
     inkscape:document-units="mm"
     inkscape:current-layer="layer1"
     showgrid="false"
     units="px"
     inkscape:window-width="1920"
     inkscape:window-height="1017"
     inkscape:window-x="-8"
     inkscape:window-y="-8"
     inkscape:window-maximized="1" />
  <metadata
     id="metadata5">
    <rdf:RDF>
      <cc:Work
         rdf:about="">
        <dc:format>image/svg+xml</dc:format>
        <dc:type
           rdf:resource="http://purl.org/dc/dcmitype/StillImage" />
        <dc:title></dc:title>
      </cc:Work>
    </rdf:RDF>
  </metadata>
  <g
     inkscape:label="Layer 1"
     inkscape:groupmode="layer"
     id="layer1"
     transform="translate(0,-138.24998)">
    <path
       style="fill:#c653ce;fill-opacity:1;stroke:#c653ce;stroke-width:1;stroke-miterlimit:4;stroke-dasharray:none;stroke-opacity:1"
       id="path4520"
       d="m 22.069795,177.45984 c -0.406609,0.98391 -0.353566,2.07038 -0.351573,3.1149 -0.09046,1.08822 0.178415,2.1167 0.407207,3.16664 0.331305,1.14205 0.706539,2.26231 0.968693,3.42371 0.445972,1.64593 0.840949,3.30416 1.273491,4.954 0.258878,1.32371 0.796338,2.56257 1.199474,3.84171 0.255831,0.81174 0.467859,1.63665 0.705995,2.45375 0.761066,2.62921 1.357784,5.30176 2.088439,7.939 1.05057,3.8791 1.969434,7.79393 2.956761,11.69013 0.641715,2.89726 1.283126,5.78888 2.007827,8.66659 0.618916,2.04648 1.139045,4.10401 1.511179,6.2093 0.389173,1.93918 0.863912,3.85969 1.266793,5.79593 0.245554,1.30862 0.40618,2.63157 0.640188,3.94231 0.176313,1.21946 0.38009,2.43066 0.62361,3.63824 0.120266,0.72134 0.22974,1.45214 0.502211,2.13496 0.26766,0.55032 0.368353,1.15413 0.562673,1.73002 0.224446,0.70254 0.245232,1.4423 0.411425,2.1583 0.293669,0.61833 0.439877,1.28506 0.703524,1.91497 0.376301,0.75415 0.489609,1.5947 0.78685,2.37551 0.368464,0.657 0.374097,1.45809 0.746874,2.10409 0.489418,0.39327 1.251807,0.34372 1.853935,0.36509 0.958546,0.0175 1.91734,0.007 2.875939,-5.3e-4 1.041831,-0.001 2.083742,-0.008 3.125584,-0.003 1.513284,-0.002 3.026383,0.0171 4.539667,0.0156 1.987307,0.14509 3.979749,0.21632 5.965214,0.38255 2.246741,0.18712 4.498949,0.28933 6.752444,0.34282 2.7865,0.19765 5.578237,0.29832 8.370187,0.3769 2.558695,0.048 5.118068,0.0514 7.677121,0.0405 1.978495,0.002 3.956949,-7.9e-4 5.93545,-0.009 1.496052,-0.002 2.992059,-0.0105 4.488117,-0.0103 1.638062,0.019 3.276354,0.009 4.914463,-2.7e-4 1.037984,-0.0109 2.057535,-0.22141 3.093133,-0.30075 1.01471,-0.0727 2.03257,-0.0827 3.04945,-0.0862 1.08376,-0.001 2.16749,0.002 3.25125,-9e-5 0.87132,-0.001 1.74265,-0.006 2.61397,-0.002 0.14852,1.9e-4 0.29748,0.012 0.44556,5.3e-4 0.12411,-0.01 0.73257,-0.12587 0.85522,-0.14006 0.6498,-0.0752 1.31096,-0.0992 1.96366,-0.13639 1.38122,-0.0752 2.7642,-0.0819 4.14696,-0.0913 1.79833,0.14662 3.59942,0.25225 5.40224,0.32287 1.11243,0.0426 2.22574,0.0477 3.33883,0.0473 0.77231,-0.0382 1.56025,0.0782 2.32073,-0.0768 0.74434,-0.16966 1.50387,-0.23922 2.26446,-0.27976 0.75856,-0.0312 1.51796,-0.0298 2.27701,-0.03 0.73104,-0.046 1.48851,0.10157 2.20355,-0.0752 0.64673,-0.18706 1.31779,-0.23968 1.98666,-0.27498 0.74393,-0.0295 1.48865,-0.0276 2.23304,-0.0278 0,0 -4.53689,3.29797 -4.53689,3.29797 v 0 c -0.73779,0.004 -1.47654,0.006 -2.21261,0.0622 -0.66323,0.0631 -1.31309,0.18988 -1.96864,0.30387 -0.74694,0.0261 -1.49461,0.004 -2.24188,0.0118 -0.75192,0.003 -1.5046,0.007 -2.25499,0.0602 -0.75454,0.0643 -1.49928,0.18651 -2.24705,0.30299 -0.78426,0.037 -1.56985,0.0131 -2.35478,0.0141 -1.10455,-0.0122 -2.20897,-0.039 -3.31223,-0.0958 -1.79757,-0.10277 -3.59366,-0.24769 -5.3939,-0.29156 -1.37522,0.008 -2.75121,0.03 -4.1241,0.11549 -1.10881,0.0829 -2.2084,0.27294 -3.32108,0.27169 -0.86796,0.003 -1.73593,-0.002 -2.60389,-0.005 -1.08279,-0.004 -2.16558,-0.005 -3.248353,0.004 -1.007933,0.0136 -2.016786,0.0289 -3.021361,0.12059 -1.032661,0.10296 -2.059954,0.30259 -3.102714,0.24705 -1.637763,-0.009 -3.275708,-0.0194 -4.913426,-2.6e-4 -1.487511,5.3e-4 -2.97498,-0.007 -4.462486,-0.008 -1.972056,-0.006 -3.94408,-0.005 -5.916105,-0.007 -2.541436,-0.0201 -5.08295,-0.0374 -7.623923,-0.0941 -2.814868,-0.0568 -5.623714,-0.23792 -8.43729,-0.33132 -2.250152,-0.0746 -4.496612,-0.21196 -6.741866,-0.37783 -1.992556,-0.10894 -3.983289,-0.25403 -5.977427,-0.327 -1.527911,-0.002 -3.055647,0.0168 -4.583555,0.017 -1.045429,0.007 -2.090909,0.003 -3.136315,0.0142 -0.969118,0.003 -1.939073,0.0198 -2.907551,-0.0225 -0.795081,-0.0676 -1.649465,-0.14532 -2.169668,-0.82851 -0.375986,-0.68473 -0.419595,-1.47761 -0.769223,-2.17912 -0.312296,-0.77136 -0.413732,-1.60288 -0.779238,-2.35599 -0.29692,-0.65418 -0.443619,-1.35273 -0.759402,-1.99989 -0.16697,-0.6996 -0.206853,-1.41283 -0.393631,-2.10674 -0.193061,-0.56638 -0.295314,-1.15506 -0.545571,-1.70115 -0.29565,-0.71498 -0.425127,-1.48334 -0.526348,-2.24701 -0.223819,-1.2152 -0.426337,-2.42994 -0.606047,-3.65253 -0.249931,-1.30868 -0.403296,-2.6341 -0.612791,-3.94951 -0.363156,-1.95175 -0.821005,-3.88484 -1.234559,-5.82631 -0.3639,-2.09538 -0.891389,-4.14517 -1.465535,-6.19188 -0.693018,-2.89516 -1.354791,-5.79369 -1.913379,-8.71844 -0.917081,-3.90308 -1.878567,-7.79417 -3.00079,-11.64443 -0.754573,-2.62541 -1.405871,-5.2762 -2.11616,-7.91301 -0.652757,-2.0979 -1.39952,-4.16381 -1.964987,-6.28665 -0.427043,-1.65041 -0.869369,-3.29772 -1.329424,-4.93914 -0.281896,-1.15754 -0.616922,-2.29244 -0.981549,-3.42627 -0.237874,-1.08257 -0.563697,-2.14097 -0.467202,-3.26636 -0.01374,-1.10352 -0.04418,-2.23103 0.223089,-3.30901 0,0 5.101342,-2.34421 5.101342,-2.34421 z"
       inkscape:connector-curvature="0" />
    <path
       style="fill:#c653ce;fill-opacity:1;stroke:#c653ce;stroke-width:1;stroke-miterlimit:4;stroke-dasharray:none;stroke-opacity:1"
       id="path4522"
       d="m 122.84882,246.44202 c 0.98203,0.55868 1.97227,1.09631 2.91539,1.72043 0.99644,0.74297 2.12748,1.2768 3.21723,1.86561 0.94193,0.64773 1.97714,1.13085 2.9561,1.71722 0.17411,0.0865 0.35461,0.16128 0.52232,0.25965 1.76652,1.03611 -0.49616,-0.17596 1.38628,0.8566 0.68725,0.37697 1.39439,0.72378 2.08881,1.08773 1.47919,0.8889 2.93301,1.81892 4.44695,2.64836 1.02156,0.71061 2.12806,1.27683 3.21603,1.87374 1.02331,0.87831 2.14757,1.62736 3.20531,2.46322 0.78319,0.60057 1.63772,1.10839 2.52746,1.53394 3.41386,1.24782 -1.31273,2.57968 -3.66767,4.05862 -0.64913,0.26169 -1.35788,0.21672 -2.02308,0.40042 -0.572,0.17351 -1.18435,0.135 -1.74827,0.3353 -0.13475,0.0479 -0.2615,0.11584 -0.39226,0.17376 -0.14687,0.0501 -0.29374,0.10017 -0.44061,0.15026 -1.08582,0.313 -2.20226,0.50154 -3.29701,0.77347 -0.94131,0.25102 -1.86566,0.5593 -2.80174,0.83448 -0.87665,0.37517 -1.76214,0.68956 -2.67117,0.97313 -0.63508,0.24941 -1.34535,0.23346 -1.97939,0.47937 -0.25337,0.0983 -0.4856,0.24423 -0.73055,0.36194 -1.05794,0.29961 -2.10084,0.65157 -3.17717,0.88046 -0.9423,0.315 -1.91573,0.47417 -2.86036,0.77554 -1.68446,0.9773 -4.01804,2.24016 3.99678,-2.29123 0.0822,-0.0465 -0.15453,0.10871 -0.23194,0.16288 -0.36166,0.25307 -0.15463,0.10208 -0.52942,0.38553 -0.30674,0.2276 -0.60272,0.48533 -0.93501,0.67677 -1.71278,0.98681 -3.43832,1.95132 -5.15337,2.93419 -0.10471,0.06 -0.41038,0.25403 -0.30555,0.19423 1.51214,-0.86265 3.01855,-1.73532 4.52782,-2.60297 -0.30927,0.24721 -0.16466,0.12886 -0.4347,0.35398 0,0 -5.25618,2.0187 -5.25618,2.0187 v 0 c 0.32949,-0.12216 0.16642,-0.0346 0.47845,-0.28181 16.27913,-9.7315 -3.47736,2.15305 1.87014,-1.19879 1.87103,-1.62618 4.08773,-2.92343 6.40996,-3.77855 0.94375,-0.26956 1.91603,-0.43282 2.85395,-0.72756 1.05956,-0.27703 2.12504,-0.57003 3.13947,-0.98446 0.88103,-0.36581 1.83034,-0.47208 2.73213,-0.77806 0.90644,-0.29255 1.77319,-0.6866 2.68148,-0.97465 0.92849,-0.29796 1.869,-0.56774 2.81708,-0.79419 1.10171,-0.22948 2.19703,-0.48654 3.26982,-0.83014 0.85692,-0.30303 1.74503,-0.42362 2.63195,-0.61109 0.67189,-0.10456 1.36906,-0.17664 1.95421,-0.55521 -1.54061,0.97409 -3.11667,1.89426 -4.62182,2.92228 -0.055,0.0376 0.097,0.0918 0.15051,0.13163 0.017,0.0127 -0.023,-0.037 -0.0402,-0.0495 -0.0617,-0.0448 -0.12679,-0.0853 -0.19427,-0.12084 -0.11487,-0.0605 -0.60895,-0.27898 -0.70212,-0.32068 -0.89765,-0.47453 -1.77028,-1.00012 -2.55041,-1.65473 -1.03479,-0.82595 -2.1346,-1.5599 -3.1848,-2.36459 -1.08213,-0.59508 -2.14074,-1.22762 -3.17219,-1.90749 -1.49654,-0.85449 -2.9491,-1.78135 -4.44882,-2.6303 -1.35638,-0.71734 -2.69757,-1.45957 -4.03462,-2.21141 -0.98187,-0.56844 -1.99969,-1.07129 -2.94669,-1.69914 -1.10011,-0.59607 -2.22126,-1.16746 -3.23472,-1.90648 -0.93505,-0.59177 -1.9025,-1.13993 -2.90137,-1.61622 0,0 4.67182,-3.11338 4.67182,-3.11338 z"
       inkscape:connector-curvature="0" />
    <path
       style="fill:#c653ce;fill-opacity:1;stroke:#c653ce;stroke-width:1;stroke-miterlimit:4;stroke-dasharray:none;stroke-opacity:1"
       id="path4524"
       d="m 3.6753625,190.44815 c 0.6283994,-1.22468 1.2121885,-2.46553 1.7322427,-3.73958 0.5820177,-1.26577 1.2411741,-2.49439 1.9602285,-3.6871 0.5398151,-0.90637 0.8811303,-1.89288 1.4746161,-2.76795 0.5980546,-0.76472 0.9635566,-1.67016 1.3915832,-2.53373 0.573598,-1.1236 1.166448,-2.23709 1.732663,-3.36444 0.469706,-1.04313 1.093868,-1.99622 1.673806,-2.97735 0.658097,-1.09927 1.269207,-2.22801 1.875485,-3.35692 0.619726,-0.98975 1.215025,-1.9829 1.701645,-3.04509 1.378871,-3.21721 -0.583933,-0.98832 5.70748,-4.2551 0.723569,0.2016 1.075334,0.82834 1.391578,1.45547 0.518769,0.64575 0.998684,1.30162 1.433615,2.01123 0.487722,0.82474 0.860325,1.70094 1.368616,2.51268 0.46459,0.69038 0.80382,1.46495 1.335987,2.11009 0.02487,0.0301 0.742646,0.79423 0.772432,0.82598 0.68388,0.77277 1.264542,1.6229 1.864085,2.45895 0.456319,0.55511 0.760698,1.21766 1.191408,1.78732 0.44205,0.70161 0.875345,1.40252 1.35373,2.08121 0.635919,0.73779 1.238039,1.49935 1.87987,2.23244 0.755875,0.78221 1.203169,1.77306 1.752754,2.69342 0,0 -4.848614,2.80204 -4.848614,2.80204 v 0 c -0.512154,-0.89866 -0.935265,-1.85943 -1.674156,-2.60716 -0.674587,-0.73184 -1.28468,-1.5199 -1.925231,-2.28146 -0.477811,-0.6744 -0.930185,-1.36092 -1.370539,-2.05942 -0.418875,-0.58433 -0.743254,-1.23274 -1.180368,-1.80659 -0.571796,-0.82541 -1.14509,-1.64904 -1.810774,-2.4039 -0.870049,-0.95057 -1.527176,-1.89193 -2.155893,-3.01965 -0.536648,-0.8019 -0.903003,-1.68037 -1.389298,-2.51306 -0.451626,-0.71746 -0.962021,-1.37328 -1.47421,-2.04526 -0.242141,-0.48015 -0.481662,-0.95716 -1.089156,-0.94091 1.570197,-0.89246 3.16768,-1.73854 4.710592,-2.67739 0.06279,-0.0382 -0.14271,-0.0837 -0.21223,-0.0598 -0.187968,0.0645 -0.390805,1.20785 -0.548159,1.38098 -0.501251,1.06717 -0.996945,2.13258 -1.712357,3.08111 -0.588504,1.13626 -1.223895,2.25423 -1.840895,3.3712 -0.581477,0.98309 -1.229373,1.91848 -1.72067,2.95426 -0.555546,1.12673 -1.142568,2.23653 -1.696914,3.36383 -0.485267,0.85737 -0.780434,1.80384 -1.35703,2.60606 -0.291929,0.37107 -0.60052,0.7478 -0.798008,1.1815 -0.236637,0.51967 -0.377714,1.08784 -0.724583,1.55708 -0.723229,1.172 -1.38611,2.36903 -1.985849,3.61026 -0.5571478,1.25364 -1.0771202,2.52204 -1.6832698,3.75456 0,0 -5.1062127,2.31021 -5.1062127,2.31021 z"
       inkscape:connector-curvature="0" />
    <path
       style="fill:#c653ce;fill-opacity:1;stroke:#c653ce;stroke-width:1;stroke-miterlimit:4;stroke-dasharray:none;stroke-opacity:1"
       id="path4526"
       d="m 137.96619,275.70534 c 0.89326,0.85331 1.75148,1.74042 2.66628,2.57187 0.95742,0.96283 1.92258,1.93405 3.03318,2.7207 0.77856,0.79331 1.66479,1.45373 2.52315,2.15455 0.69175,0.74223 1.52279,1.28957 2.35238,1.85246 0.61084,0.41279 1.03145,1.02658 1.55198,1.53347 0.69643,0.58536 1.36638,1.20343 2.06832,1.78325 0.41769,0.27326 0.22134,0.14017 0.59027,0.39746 0,0 -4.74462,3.01117 -4.74462,3.01117 v 0 c -0.35891,-0.27179 -0.16117,-0.123 -0.59382,-0.44559 -0.69915,-0.60982 -1.40698,-1.20955 -2.10877,-1.81508 -0.47825,-0.49864 -0.90185,-1.06052 -1.48589,-1.44578 -0.83986,-0.5678 -1.62157,-1.19644 -2.34836,-1.90662 -0.86962,-0.67753 -1.71834,-1.36808 -2.50934,-2.13713 -1.09838,-0.8352 -2.07141,-1.81295 -3.05656,-2.77655 -0.90579,-0.83426 -1.76346,-1.71852 -2.69708,-2.52225 0,0 4.75888,-2.97593 4.75888,-2.97593 z"
       inkscape:connector-curvature="0" />
    <path
       style="fill:#c653ce;fill-opacity:1;stroke:#c653ce;stroke-width:1;stroke-miterlimit:4;stroke-dasharray:none;stroke-opacity:1"
       id="path4530"
       d="m 131.00943,289.00694 c 2.12694,-0.90605 7.04045,-3.80034 -1.56368,1.11989 0.1246,-0.0753 0.24752,-0.15351 0.37379,-0.22598 1.71541,-0.98457 3.42763,-1.97481 5.15117,-2.94508 0.25638,-0.14433 0.53216,-0.25169 0.79138,-0.39086 0.14987,-0.0805 0.59721,-0.3259 0.45001,-0.24064 -1.43414,0.83068 -2.87406,1.65136 -4.31109,2.47703 1.74893,-1.00343 3.49787,-2.00686 5.24681,-3.0103 0.18362,-0.0827 0.3712,-0.15716 0.55085,-0.24818 0.17533,-0.0888 0.34198,-0.19383 0.51296,-0.29074 0.17682,-0.10095 0.70725,-0.4038 0.53045,-0.30283 -4.43726,2.53401 -5.65234,3.36104 -3.85079,2.15669 2.20609,-1.53001 4.54067,-2.89775 7.00329,-3.95319 -15.15618,8.63171 11.74152,-6.69582 -3.05226,1.77286 0.68353,-0.36138 1.1824,-0.92236 1.70004,-1.47714 0.62445,-0.63466 1.1119,-1.37992 1.66119,-2.07607 0.52914,-0.55596 0.87966,-1.23611 1.26037,-1.89388 1.42932,-2.21318 3.06695,-2.3785 5.94562,-4.03044 0.62553,-0.10453 1.26206,-0.0885 1.80604,-0.44953 0.53162,-0.24718 0.99358,-0.55179 1.57275,-0.68693 0.4038,-0.0625 0.21557,-0.0274 0.56543,-0.10125 0,0 -4.48411,3.40545 -4.48411,3.40545 v 0 c -0.3295,0.0724 -0.15478,0.0271 -0.52257,0.14181 -0.52219,0.22513 -1.00594,0.5289 -1.53837,0.7345 -0.59922,0.16217 -1.23481,0.18744 -1.79737,0.46132 1.52014,-0.88859 3.04447,-1.77006 4.56042,-2.66578 0.0755,-0.0446 -0.16397,0.065 -0.23808,0.11188 -0.30315,0.19174 -0.50616,0.55829 -0.71739,0.83497 -0.49923,0.60227 -0.71165,1.39178 -1.26601,1.95919 -0.60853,0.65418 -1.03827,1.43396 -1.62972,2.09735 -0.54064,0.54761 -0.97228,1.21255 -1.65885,1.59446 -1.71181,1.00015 -3.42065,2.0054 -5.13542,3.00045 -0.11553,0.067 -0.23601,0.12518 -0.35513,0.18559 -0.0959,0.0486 -0.38259,0.19569 -0.28979,0.14146 1.51476,-0.8852 3.03769,-1.75635 4.55639,-2.63479 0.0855,-0.0495 -0.17125,0.0986 -0.25688,0.14789 -1.69516,0.97188 -3.39032,1.94375 -5.08548,2.91563 -0.17566,0.0826 -1.84404,0.9595 -0.99899,0.46049 7.90447,-4.66757 5.199,-3.15161 3.59619,-2.0304 -2.11292,1.3944 -0.53811,0.36596 -5.68411,3.37802 -0.39624,0.23192 -0.65979,0.35881 -1.06599,0.56726 -0.18056,0.0927 -0.71635,0.38144 -0.54142,0.27853 1.43105,-0.84191 2.87369,-1.66398 4.31054,-2.49596 -1.75132,1.00814 -3.49951,2.02173 -5.25395,3.02443 -0.26152,0.14946 -0.60194,0.30971 -0.87389,0.44539 -0.12866,0.0642 -0.509,0.26728 -0.38501,0.19448 9.66804,-5.67664 5.47476,-3.18952 4.0608,-2.35029 -2.65969,1.5349 -5.25699,3.09115 -8.01222,4.42237 0,0 4.36208,-3.52913 4.36208,-3.52913 z"
       inkscape:connector-curvature="0" />
    <path
       style="fill:#c653ce;fill-opacity:1;stroke:#c653ce;stroke-width:1;stroke-miterlimit:4;stroke-dasharray:none;stroke-opacity:1"
       id="path4532"
       d="m 44.833222,157.74864 c 0.161875,1.28357 0.383543,2.56492 0.62113,3.8376 0.133012,1.17421 0.587399,2.21002 1.128192,3.24338 0.521599,1.04406 0.987099,2.11705 1.668772,3.06799 0.742447,1.00289 1.572844,1.95308 2.556446,2.72513 0.752912,0.52237 1.593501,0.87184 2.447441,1.18926 0.308893,0.10465 0.675338,0.18543 1.003655,0.1008 0.08449,-0.0218 0.310525,-0.15912 0.234378,-0.11653 -4.98375,2.78768 -6.144249,3.50877 -4.417457,2.44298 0.840036,-0.71324 1.423469,-1.59256 1.96346,-2.53863 0.589507,-0.77939 0.951902,-1.69061 1.469379,-2.51016 0.649412,-0.91249 1.133208,-1.92159 1.745962,-2.85979 0.454009,-0.6283 0.595926,-1.40112 1.006292,-2.04993 0.302139,-0.43555 0.557861,-0.8321 0.563184,-1.37222 -0.12696,-0.29258 -0.585247,-0.99582 -0.825515,-0.44843 8.637613,-4.9192 4.673973,-3.76435 4.093575,-1.59981 -0.05031,0.7348 -0.398119,1.37902 -0.615768,2.06714 -0.24606,0.89997 -0.261726,1.83741 -0.287766,2.76356 -0.01212,1.10113 -0.01116,2.20238 -0.01296,3.30358 -0.004,1.22652 0.01328,2.45292 -0.0045,3.67935 0.08417,1.36991 0.170048,2.74544 0.34508,4.1073 0.185904,0.9893 0.311153,1.98448 0.379823,2.98828 0.04591,1.19735 0.03929,2.3971 0.04067,3.59543 -0.01796,0.99862 0.04862,2.00002 -0.01508,2.99724 -0.133194,0.78824 -0.240615,1.57814 -0.302284,2.37518 0.0077,0.87441 -0.134577,1.73268 -0.260911,2.59435 -0.122078,0.83129 -0.146118,1.67152 -0.161128,2.51017 0.02945,0.8506 0.0011,1.6681 -0.246089,2.48528 -0.309155,0.69488 -0.536488,1.43843 -1.007708,2.04367 -1.67631,1.31336 -3.940083,2.35654 -5.589757,3.27488 -0.32381,0.18025 -0.634119,0.14335 -0.961252,0.0347 -0.724557,-0.35214 -1.486636,-0.61118 -2.19429,-0.99794 -0.682165,-0.42934 -1.226884,-1.01707 -1.831465,-1.54152 -0.577191,-0.53073 -1.1714,-0.96395 -1.500455,-1.69988 -0.197148,-0.63296 -0.08331,-1.22774 0.257885,-1.78042 0.649393,-0.76565 1.492149,-1.34618 2.27417,-1.96956 0.90515,-0.79234 1.788065,-1.58584 2.787391,-2.2608 3.017448,-1.99618 10.954226,-6.15683 1.702218,-1.031 -0.18143,0.10052 0.342675,-0.23385 0.511074,-0.35493 0.447752,-0.32196 0.889453,-0.65227 1.337093,-0.97438 2.03196,-1.47421 4.042617,-2.97389 6.083512,-4.43691 2.042803,-1.54717 4.169756,-2.97548 6.275916,-4.43326 2.393635,-1.59374 4.775076,-3.20481 7.15858,-4.81367 2.356094,-1.46047 4.675016,-2.97052 6.968128,-4.52779 2.081408,-1.36512 4.255582,-2.58126 6.334799,-3.94945 1.260988,-0.89801 2.443139,-1.89576 3.729273,-2.7591 0.723937,-0.36369 1.139971,-0.99412 1.612133,-1.61456 0.213603,-0.27523 0.398767,-0.56628 0.570502,-0.86859 0,0 5.110523,-2.31953 5.110523,-2.31953 v 0 c -0.140701,0.33926 -0.284846,0.67246 -0.529993,0.95309 -0.776948,1.16535 0.404114,-0.58009 -0.420079,0.55181 -0.347217,0.47686 -0.576172,1.0017 -1.145479,1.27792 -1.355878,0.81087 -2.555435,1.8338 -3.817551,2.77798 -2.053158,1.40491 -4.244038,2.5938 -6.330767,3.94804 -1.398474,0.9266 -2.757011,1.91119 -4.187367,2.79027 -0.466691,0.28683 -0.950648,0.54495 -1.416627,0.83293 -0.488627,0.30197 -0.964353,0.62434 -1.44653,0.93652 -2.375863,1.5877 -4.71243,3.23382 -7.112153,4.78594 -2.100147,1.46771 -4.243385,2.87408 -6.2826,4.42796 -2.027032,1.44881 -4.025662,2.92107 -6.019673,4.41174 -0.591688,0.42105 -1.175121,0.96216 -1.797077,1.33676 -4.073263,2.45326 -9.130517,5.29806 -1.116081,0.67867 0.199051,-0.11473 -0.392258,0.2393 -0.588386,0.35895 -0.679434,0.40343 -1.390364,0.84996 -1.959213,1.40595 -0.138713,0.13557 -0.24733,0.30026 -0.388943,0.4328 -0.138395,0.12953 -0.298585,0.23362 -0.447876,0.35042 -0.742556,0.63548 -1.544603,1.20372 -2.279322,1.84507 -0.367937,0.35062 -0.607083,0.71899 -0.517355,1.24977 0.218972,0.66976 0.898691,0.98123 1.351063,1.47772 0.570251,0.49603 1.083765,1.06126 1.75107,1.43392 0.670383,0.32402 1.375416,0.64524 2.099803,0.81185 0.26762,-0.0685 1.171453,-0.53364 0.761193,-0.29412 -8.595556,5.01836 -5.7071,3.05537 -3.995555,2.36917 0.673383,-0.41761 0.747313,-1.14364 1.135996,-1.78534 0.08472,-0.24152 0.19277,-0.47581 0.256836,-0.72361 0.135909,-0.52567 0.02408,-1.07921 0.06713,-1.61349 0.01275,-0.85773 0.01791,-1.71848 0.126042,-2.57074 0.117018,-0.85096 0.316177,-1.69095 0.284539,-2.55547 0.03517,-0.80661 0.121695,-1.60896 0.279942,-2.40148 0.179978,-0.96755 0.01405,-1.97614 0.08095,-2.95479 -5.29e-4,-1.18482 0.0068,-2.37001 -0.04858,-3.55395 -0.05221,-0.9947 -0.163018,-1.9824 -0.340741,-2.9631 -0.191744,-1.38483 -0.22528,-2.78911 -0.364951,-4.18003 -0.01879,-1.22346 -0.0029,-2.44698 -0.01122,-3.67054 -0.0053,-1.10376 -0.01455,-2.2075 0.0016,-3.31122 0.01114,-0.96115 0.0066,-1.93214 0.203562,-2.87742 0.05684,-0.23832 0.121449,-0.54509 0.209532,-0.77611 0.160528,-0.42103 0.454318,-0.76726 0.41054,-1.25229 0.410509,-2.68473 2.441252,-2.71176 5.42081,-4.30701 0.675219,0.18439 1.063675,0.69002 1.35309,1.30967 0.10728,0.66745 -0.02125,1.16786 -0.399153,1.71417 -0.113104,0.16368 -0.257744,0.305 -0.362786,0.47398 -0.303163,0.48767 -0.301231,1.12809 -0.677387,1.58547 -0.296423,0.46003 -0.637894,0.89539 -0.90338,1.37465 -0.196987,0.3556 -0.327168,0.7462 -0.531468,1.09765 -0.08349,0.14363 -0.195726,0.2685 -0.29359,0.40276 -0.145341,0.18492 -0.404447,0.49374 -0.509098,0.70913 -0.07143,0.14702 -0.09728,0.31292 -0.164023,0.46212 -0.211606,0.47302 -0.549548,0.87851 -0.840875,1.30141 -0.299781,0.52347 -0.551405,1.11983 -0.893254,1.6154 -0.233456,0.33844 -0.434057,0.44433 -0.706814,0.73806 -0.09094,0.0979 -0.167415,0.20837 -0.251121,0.31256 -1.529456,2.1235 -4.25327,3.77205 -6.671736,2.83449 -0.886873,-0.36299 -1.763318,-0.7516 -2.526271,-1.3443 -0.992692,-0.83076 -1.836727,-1.83137 -2.609223,-2.86663 -0.698388,-0.97158 -1.230799,-2.03996 -1.727377,-3.12717 -0.554484,-1.0823 -1.079886,-2.15797 -1.200869,-3.38839 -0.24895,-1.30061 -0.39819,-2.62036 -0.707197,-3.91055 0,0 4.999778,-2.54751 4.999778,-2.54751 z"
       inkscape:connector-curvature="0" />
  </g>
</svg>
